<svg width="100%" height="auto" viewBox="0 0 239 74" fill="none" xmlns="http://www.w3.org/2000/svg">
  <g clipPath="url(#clip0_347_15)">
    <path
      d="M0.176165 68.189V62.424L3.08963 62.4261C5.7667 62.4277 6.08349 62.465 6.9938 62.8844C7.67986 63.2004 8.14984 63.5879 8.52218 64.1446C8.99399 64.8499 9.05986 65.1254 9.05986 66.3936C9.05986 67.6539 8.99261 67.9394 8.53426 68.6246C7.75279 69.7929 6.75419 70.2268 4.61801 70.326L2.85083 70.408V72.1812V73.9543H1.51349H0.176165V68.189ZM5.54204 67.8522C6.56316 67.0766 6.48189 65.3898 5.39991 64.9021C5.14386 64.7866 4.46557 64.6922 3.8926 64.6922H2.85083V66.3934V68.0945L4.04487 68.0885C4.70159 68.0853 5.37532 67.9789 5.54204 67.8522ZM14.6002 73.5463C12.696 72.5721 11.8039 71.0749 11.6787 68.643C11.5734 66.5986 11.9336 65.2712 12.8952 64.1598C15.3818 61.2855 20.3039 61.7832 22.0087 65.0813C23.5414 68.0464 22.5169 72.0614 19.8798 73.4244C18.9699 73.8947 18.6597 73.9531 17.1098 73.9457C15.7305 73.9391 15.2041 73.8553 14.6002 73.5463ZM18.6055 71.235C19.4373 70.6958 19.7532 69.8575 19.7532 68.189C19.7532 67.0963 19.6586 66.5041 19.4122 66.0542C18.4163 64.2353 15.7931 64.2575 14.8952 66.0926C14.4581 66.9861 14.3593 69.0133 14.7085 69.9251C14.9515 70.5596 15.5991 71.2849 16.1286 71.5156C16.674 71.7532 18.0459 71.5978 18.6055 71.235ZM27.6868 73.915C27.6867 73.8845 26.9264 71.2865 25.9973 68.1417L24.3079 62.424H25.8733H27.4387L28.2793 66.1097C28.7416 68.1369 29.1711 69.7955 29.2337 69.7956C29.2963 69.7956 29.7763 68.1583 30.3004 66.1571L31.2531 62.5185H32.5623H33.8715L34.8219 66.1571C35.3446 68.1583 35.8263 69.7956 35.8924 69.7956C35.9585 69.7956 36.3883 68.137 36.8475 66.1098L37.6824 62.424H39.2658H40.8493L40.6736 62.9438C40.5769 63.2297 39.9754 65.2498 39.3369 67.4329C38.6983 69.6161 38.0034 71.9801 37.7926 72.6862L37.4093 73.9702L36.0442 73.9148L34.6791 73.8595L33.6707 70.477C33.1161 68.6166 32.6308 67.0633 32.5922 67.0251C32.5536 66.9869 32.0518 68.509 31.477 70.4076L30.432 73.8595L29.0595 73.915C28.3046 73.9456 27.6869 73.9456 27.6868 73.915ZM43.1618 68.189V62.424H47.1738H51.1858V63.5581V64.6922H48.5111H45.8364V65.8263V66.9604H48.3201H50.8037V68.0889V69.2173L48.3678 69.2702L45.932 69.3231L45.8751 70.5044L45.8182 71.6858H48.502H51.1858V72.8199V73.954H47.1738H43.1618V68.189ZM54.2425 68.189V62.424H57.0797C60.0939 62.424 60.8159 62.5603 61.8574 63.326C63.6279 64.6275 63.6408 67.6429 61.8821 69.107C61.1584 69.7095 61.0929 69.458 62.7402 72.4024L63.617 73.9695L62.0599 73.9145L60.5028 73.8595L59.4571 71.9221L58.4113 69.9847H57.6642H56.9172V71.9693V73.954H55.5798H54.2425V68.189ZM59.7147 67.4326C60.2839 67.0636 60.4533 66.1827 60.0892 65.4861C59.7573 64.851 59.339 64.6984 57.9202 64.6948L56.9172 64.6921V66.1727C56.9172 66.9871 56.9817 67.7186 57.0605 67.7983C57.2738 68.014 59.2345 67.7439 59.7147 67.4326ZM65.8964 68.189V62.424H69.9084H73.9204V63.5581V64.6922H71.3412H68.7621V65.8263V66.9604H71.1502H73.5383V68.0945V69.2286H71.1502H68.7621V70.4572V71.6858H71.3412H73.9204V72.8199V73.954H69.9084H65.8964V68.189ZM76.9771 68.2056V62.424H79.6171C83.5872 62.424 85.0933 63.0288 86.2429 65.0848C86.7822 66.0493 86.8161 66.2326 86.8161 68.189C86.8161 70.5078 86.5606 71.2479 85.345 72.4506C84.1578 73.6251 83.3483 73.8473 79.9861 73.9211L76.9771 73.9872V68.2056ZM83.2763 70.8333C84.4641 69.6581 84.4762 66.675 83.2977 65.5579C82.9042 65.185 82.4184 64.9871 81.5235 64.8355C79.5657 64.5037 79.6518 64.3487 79.6518 68.2031V71.5368L81.1778 71.4683C82.5738 71.4055 82.7526 71.3514 83.2763 70.8333ZM94.3624 68.1887V62.3928L97.658 62.4556C100.569 62.5112 101.032 62.5638 101.622 62.9068C103.669 64.097 103.632 66.759 101.555 67.623L100.992 67.8574L101.679 68.082C102.058 68.2055 102.63 68.6021 102.95 68.9632C103.451 69.5278 103.533 69.7679 103.533 70.6777C103.533 71.992 103.092 72.7563 101.966 73.3941C101.193 73.8323 100.947 73.8631 97.7535 73.9221L94.3624 73.9846V68.1887ZM100.249 71.3004C100.696 70.8886 100.789 70.1849 100.474 69.6025C100.246 69.1817 99.181 68.8531 98.0401 68.8516L97.2281 68.8505V70.2682V71.6858H98.5294C99.575 71.6858 99.9129 71.61 100.249 71.3004ZM99.581 66.9321C100.13 66.6461 100.278 66.4046 100.282 65.7898C100.286 65.0493 99.6517 64.6922 98.3319 64.6922H97.2281V65.9208V67.1494H98.1959C98.7282 67.1494 99.3515 67.0516 99.581 66.9321ZM109.837 72.0394V70.1247L107.736 66.3596C106.58 64.2888 105.634 62.5561 105.634 62.5093C105.634 62.4624 106.322 62.424 107.164 62.424H108.693L109.882 64.7867C110.537 66.0862 111.117 67.1481 111.171 67.1464C111.226 67.1448 111.829 66.0817 112.512 64.7841L113.754 62.4249L115.234 62.4245C116.049 62.4243 116.715 62.478 116.715 62.544C116.715 62.6099 115.769 64.3772 114.613 66.4712L112.512 70.2785V72.1163V73.9541H111.175H109.837V72.0394ZM122.383 73.828C122.313 73.7587 122.255 60.4897 122.255 44.3414V14.9808H128.464H134.673V17.7099V20.439L136.441 18.689C137.803 17.34 138.56 16.7603 139.747 16.1584C142.246 14.8908 143.858 14.5269 146.996 14.522C148.535 14.5193 150.157 14.6244 150.817 14.769C153.544 15.3668 156.444 16.8489 158.596 18.7447C160.624 20.531 162.731 23.9262 163.774 27.0862C165.176 31.3377 165.244 37.7178 163.934 42.1992C162.837 45.9496 160.474 49.6333 157.751 51.8356C156.329 52.9862 153.268 54.5029 151.39 54.988C149.527 55.4691 144.671 55.4664 142.888 54.9832C140.101 54.2277 137.315 52.5029 135.611 50.477L134.673 49.3621V61.658V73.9539H128.592C125.247 73.9539 122.453 73.8973 122.383 73.828ZM145.564 44.5488C148.638 43.857 151.119 41.327 151.995 37.9907C152.406 36.4258 152.408 33.3877 152 31.8535C151.045 28.267 148.38 25.7854 144.853 25.1969C141.564 24.6479 138.004 26.1896 136.224 28.9331C135.203 30.5077 134.836 31.8388 134.73 34.355C134.578 37.9524 135.267 40.1099 137.221 42.1545C138.428 43.4171 139.549 44.0836 141.169 44.5025C142.745 44.9101 143.904 44.9223 145.564 44.5488ZM14.2181 55.4138C11.6781 55.2123 9.61893 54.6688 7.53148 53.649C3.34883 51.6056 0.940529 48.4517 0.267814 44.1366L0.142578 43.3333H3.5738H7.00502L7.12975 44.105C7.54283 46.6608 9.87002 48.8277 13.1045 49.6683C15.3857 50.2611 19.5141 49.9565 21.2525 49.067C22.1267 48.6198 23.479 47.297 23.9033 46.4743C24.4576 45.3994 24.5722 43.7326 24.1645 42.6764C23.4347 40.7856 21.1915 39.6316 14.9823 37.9524C8.96656 36.3256 6.82278 35.4586 4.71942 33.8017C1.45423 31.2296 0.281285 27.4632 1.4482 23.2976C2.38486 19.9538 5.80493 17.0298 10.3031 15.7271C12.4712 15.0991 17.3426 14.9933 19.9149 15.5182C24.1626 16.3851 27.5762 18.8359 29.1706 22.1635C29.9025 23.6909 30.1918 24.652 30.4651 26.4636L30.5863 27.2669H27.2513H23.9163L23.8156 26.5236C23.5484 24.5528 21.9207 22.429 19.991 21.5334C18.4115 20.8004 17.088 20.5916 14.6723 20.6944C12.2247 20.7987 10.8476 21.2068 9.4917 22.23C6.9845 24.122 7.00307 27.978 9.52821 29.8119C10.9732 30.8613 12.5995 31.5144 16.6062 32.6539C23.0695 34.4922 25.4189 35.4304 27.287 36.919C30.8137 39.7293 31.8568 44.4406 29.8742 48.6044C28.1885 52.1444 23.6742 54.9667 19.0984 55.3411C16.4812 55.5553 16.0772 55.5613 14.2181 55.4138ZM95.113 55.4046C92.502 55.2077 90.3735 54.623 87.9623 53.4403C84.1917 51.5909 81.6505 49.0272 79.7474 45.1528C78.0811 41.7605 77.427 38.4106 77.6021 34.166C78.0139 24.1863 83.4931 17.389 92.643 15.5071C95.152 14.991 100.372 15.1068 102.673 15.7295C105.279 16.4347 107.837 17.7537 109.998 19.5062C112.269 21.3485 114.748 25.4723 115.572 28.779C116.025 30.5928 116.269 34.4396 116.057 36.3994L115.92 37.6628H100.079C87.5319 37.6628 84.2372 37.7119 84.2384 37.8991C84.2428 38.6197 84.7032 40.7724 85.1087 41.9683C86.389 45.7441 89.5036 48.5563 93.5408 49.582C95.4514 50.0674 98.782 50.0998 100.625 49.651C103.687 48.9055 106.319 46.8658 107.645 44.2112L108.367 42.7663H111.885H115.403L115.274 43.1915C113.783 48.0748 109.831 52.2963 104.966 54.2003C102.311 55.2396 98.7295 55.6774 95.113 55.4046ZM109.354 31.378C109.069 28.895 108.497 27.2313 107.36 25.5752C105.975 23.5577 104.084 22.2052 101.336 21.2674C99.9319 20.7884 99.5735 20.7458 96.9416 20.7458C94.42 20.7458 93.9049 20.8012 92.6526 21.2069C89.8167 22.1258 87.1295 24.4074 85.8494 26.9834C85.1722 28.346 84.428 30.8856 84.428 31.8335V32.3703H96.9481H109.468L109.354 31.378ZM214.276 55.2231C206.539 54.1044 200.591 49.3542 198.193 42.3778C196.696 38.0233 196.686 32.0359 198.169 27.726C200.885 19.833 207.745 14.9504 216.776 14.4836C225.644 14.0251 233.208 18.0962 236.839 25.2822C239.446 30.443 239.666 38.0979 237.363 43.5223C236.175 46.3213 233.379 49.7766 230.855 51.5666C228.409 53.3008 224.548 54.7843 221.326 55.2277C219.629 55.4611 215.906 55.459 214.276 55.2231ZM221.46 44.0347C224.707 42.4471 226.369 39.3618 226.369 34.9221C226.369 31.7025 225.596 29.4307 223.861 27.5522C220.973 24.4257 215.916 24.142 212.718 26.9271C211.506 27.9823 210.809 29.0543 210.205 30.789C209.744 32.1159 209.688 32.5503 209.685 34.8276C209.681 38.6102 210.387 40.763 212.228 42.5847C213.906 44.2446 215.573 44.8624 218.182 44.7903C219.865 44.7439 220.139 44.6807 221.46 44.0347ZM38.7677 35.3001V15.7369H42.0155H45.2633V35.3001V54.8633H42.0155H38.7677V35.3001ZM64.5267 54.6699C62.863 54.3922 61.5834 53.9322 60.4398 53.2009C59.0416 52.3069 58.3611 51.5307 57.6362 50.0032C56.5996 47.8189 56.549 47.0552 56.5417 33.4572L56.5351 21.0294H53.9559H51.3768V18.3831V15.7369H53.9559H56.5351V10.8225V5.90803H59.7797H63.0242L63.0752 10.7752L63.1262 15.6424L68.3322 15.6927L73.5383 15.743V18.3832V21.0233L68.3322 21.0736L63.1262 21.1239L63.0741 32.654C63.0405 40.0889 63.0939 44.6492 63.2244 45.4938C63.7259 48.738 64.9019 49.3819 70.3252 49.3819H73.5383V52.1227V54.8634L69.4785 54.8412C67.2457 54.829 65.0174 54.7519 64.5267 54.6699ZM170.017 34.9221V14.9808H176.226H182.435L182.441 18.2414L182.447 21.5019L182.865 20.9349C183.701 19.7988 185.614 17.9426 186.71 17.2034C188.975 15.6764 192.096 14.6028 194.272 14.6028H195.044V21.0026V27.4023L192.035 27.5091C188.932 27.6192 187.457 27.8874 186.051 28.5973C184.265 29.4988 183.115 31.0796 182.648 33.2775C182.507 33.9433 182.435 37.7296 182.435 44.5712V54.8633H176.226H170.017V34.9221ZM40.3372 9.45081C39.4511 9.16991 38.1069 7.93988 37.6374 6.98033C37.3649 6.42331 37.2393 5.79614 37.2393 4.9917C37.2393 3.0301 38.1231 1.51215 39.736 0.703537C41.0247 0.0574429 42.1089 -0.0617747 43.3716 0.303788C46.1178 1.09889 47.569 4.03474 46.5361 6.70608C46.117 7.78996 44.6711 9.14288 43.5889 9.46366C42.6839 9.73192 41.2054 9.72609 40.3372 9.45081Z"
      fill="currentColor"
    />
  </g>
  <defs>
    <clipPath id="clip0_347_15">
      <rect width="100%" height="74" fill="white" />
    </clipPath>
  </defs>
</svg>
