<svg width="200" height="200" viewBox="0 0 200 200" fill="none" xmlns="http://www.w3.org/2000/svg">
  <g clip-path="url(#clip0_9_11)">
    <rect width="200" height="200" rx="20" fill="#141A29" />
    <path
      d="M78.961 55.144V72.68H55.153V145H33.265V72.68H9.457V55.144H78.961ZM122.458 145.896C115.887 145.896 109.999 144.829 104.794 142.696C99.5887 140.563 95.4073 137.405 92.25 133.224C89.178 129.043 87.5567 124.008 87.386 118.12H110.682C111.023 121.448 112.175 124.008 114.138 125.8C116.101 127.507 118.661 128.36 121.818 128.36C125.061 128.36 127.621 127.635 129.498 126.184C131.375 124.648 132.314 122.557 132.314 119.912C132.314 117.693 131.546 115.859 130.01 114.408C128.559 112.957 126.725 111.763 124.506 110.824C122.373 109.885 119.301 108.819 115.29 107.624C109.487 105.832 104.751 104.04 101.082 102.248C97.4127 100.456 94.2553 97.8107 91.61 94.312C88.9647 90.8133 87.642 86.248 87.642 80.616C87.642 72.2533 90.6713 65.7253 96.73 61.032C102.789 56.2533 110.682 53.864 120.41 53.864C130.309 53.864 138.287 56.2533 144.346 61.032C150.405 65.7253 153.647 72.296 154.074 80.744H130.394C130.223 77.8427 129.157 75.5813 127.194 73.96C125.231 72.2533 122.714 71.4 119.642 71.4C116.997 71.4 114.863 72.1253 113.242 73.576C111.621 74.9413 110.81 76.9467 110.81 79.592C110.81 82.4933 112.175 84.7547 114.906 86.376C117.637 87.9973 121.903 89.7467 127.706 91.624C133.509 93.5867 138.202 95.464 141.786 97.256C145.455 99.048 148.613 101.651 151.258 105.064C153.903 108.477 155.226 112.872 155.226 118.248C155.226 123.368 153.903 128.019 151.258 132.2C148.698 136.381 144.943 139.709 139.994 142.184C135.045 144.659 129.199 145.896 122.458 145.896Z"
      fill="#F8FAFC"
    />
    <path
      d="M171.128 94.952C167.288 94.952 164.131 93.8427 161.656 91.624C159.267 89.32 158.072 86.504 158.072 83.176C158.072 79.7627 159.267 76.904 161.656 74.6C164.131 72.296 167.288 71.144 171.128 71.144C174.883 71.144 177.955 72.296 180.344 74.6C182.819 76.904 184.056 79.7627 184.056 83.176C184.056 86.504 182.819 89.32 180.344 91.624C177.955 93.8427 174.883 94.952 171.128 94.952ZM183.8 124.776L169.592 161.512H155.64L163.064 124.776H183.8Z"
      fill="#3C83F6"
    />
  </g>
  <defs>
    <clipPath id="clip0_9_11">
      <rect width="200" height="200" rx="20" fill="white" />
    </clipPath>
  </defs>
</svg>
