<svg width="962" height="240" viewBox="0 0 962 240" fill="none" xmlns="http://www.w3.org/2000/svg">
  <path
    d="M120.889 75.144V92.68H97.0805V165H75.1925V92.68H51.3845V75.144H120.889ZM127.522 129.16C127.522 121.821 128.887 115.379 131.618 109.832C134.434 104.285 138.231 100.019 143.01 97.032C147.788 94.0453 153.122 92.552 159.01 92.552C164.044 92.552 168.439 93.576 172.194 95.624C176.034 97.672 178.978 100.36 181.026 103.688V93.576H202.914V165H181.026V154.888C178.892 158.216 175.906 160.904 172.066 162.952C168.311 165 163.916 166.024 158.882 166.024C153.079 166.024 147.788 164.531 143.01 161.544C138.231 158.472 134.434 154.163 131.618 148.616C128.887 142.984 127.522 136.499 127.522 129.16ZM181.026 129.288C181.026 123.827 179.49 119.517 176.418 116.36C173.431 113.203 169.762 111.624 165.41 111.624C161.058 111.624 157.346 113.203 154.274 116.36C151.287 119.432 149.794 123.699 149.794 129.16C149.794 134.621 151.287 138.973 154.274 142.216C157.346 145.373 161.058 146.952 165.41 146.952C169.762 146.952 173.431 145.373 176.418 142.216C179.49 139.059 181.026 134.749 181.026 129.288ZM309.885 92.808C318.759 92.808 325.799 95.496 331.005 100.872C336.295 106.248 338.941 113.715 338.941 123.272V165H317.181V126.216C317.181 121.608 315.943 118.067 313.469 115.592C311.079 113.032 307.751 111.752 303.485 111.752C299.218 111.752 295.847 113.032 293.373 115.592C290.983 118.067 289.789 121.608 289.789 126.216V165H268.029V126.216C268.029 121.608 266.791 118.067 264.317 115.592C261.927 113.032 258.599 111.752 254.333 111.752C250.066 111.752 246.695 113.032 244.221 115.592C241.831 118.067 240.637 121.608 240.637 126.216V165H218.749V93.576H240.637V102.536C242.855 99.5493 245.757 97.2027 249.341 95.496C252.925 93.704 256.978 92.808 261.501 92.808C266.877 92.808 271.655 93.96 275.837 96.264C280.103 98.568 283.431 101.853 285.821 106.12C288.295 102.195 291.666 98.9947 295.933 96.52C300.199 94.0453 304.85 92.808 309.885 92.808ZM349.897 129.16C349.897 121.821 351.262 115.379 353.993 109.832C356.809 104.285 360.606 100.019 365.385 97.032C370.163 94.0453 375.497 92.552 381.385 92.552C386.419 92.552 390.814 93.576 394.569 95.624C398.409 97.672 401.353 100.36 403.401 103.688V93.576H425.289V165H403.401V154.888C401.267 158.216 398.281 160.904 394.441 162.952C390.686 165 386.291 166.024 381.257 166.024C375.454 166.024 370.163 164.531 365.385 161.544C360.606 158.472 356.809 154.163 353.993 148.616C351.262 142.984 349.897 136.499 349.897 129.16ZM403.401 129.288C403.401 123.827 401.865 119.517 398.793 116.36C395.806 113.203 392.137 111.624 387.785 111.624C383.433 111.624 379.721 113.203 376.649 116.36C373.662 119.432 372.169 123.699 372.169 129.16C372.169 134.621 373.662 138.973 376.649 142.216C379.721 145.373 383.433 146.952 387.785 146.952C392.137 146.952 395.806 145.373 398.793 142.216C401.865 139.059 403.401 134.749 403.401 129.288ZM470.18 166.024C463.95 166.024 458.404 164.957 453.54 162.824C448.676 160.691 444.836 157.789 442.02 154.12C439.204 150.365 437.625 146.184 437.284 141.576H458.916C459.172 144.051 460.324 146.056 462.372 147.592C464.42 149.128 466.937 149.896 469.924 149.896C472.654 149.896 474.745 149.384 476.196 148.36C477.732 147.251 478.5 145.843 478.5 144.136C478.5 142.088 477.433 140.595 475.3 139.656C473.166 138.632 469.71 137.523 464.932 136.328C459.812 135.133 455.545 133.896 452.132 132.616C448.718 131.251 445.774 129.16 443.3 126.344C440.825 123.443 439.588 119.56 439.588 114.696C439.588 110.6 440.697 106.888 442.916 103.56C445.22 100.147 448.548 97.4587 452.9 95.496C457.337 93.5333 462.585 92.552 468.644 92.552C477.604 92.552 484.644 94.7707 489.764 99.208C494.969 103.645 497.956 109.533 498.724 116.872H478.5C478.158 114.397 477.049 112.435 475.172 110.984C473.38 109.533 470.99 108.808 468.004 108.808C465.444 108.808 463.481 109.32 462.116 110.344C460.75 111.283 460.068 112.605 460.068 114.312C460.068 116.36 461.134 117.896 463.268 118.92C465.486 119.944 468.9 120.968 473.508 121.992C478.798 123.357 483.108 124.723 486.436 126.088C489.764 127.368 492.665 129.501 495.14 132.488C497.7 135.389 499.022 139.315 499.108 144.264C499.108 148.445 497.913 152.2 495.524 155.528C493.22 158.771 489.849 161.331 485.412 163.208C481.06 165.085 475.982 166.024 470.18 166.024ZM545.011 165.896C538.44 165.896 532.552 164.829 527.347 162.696C522.141 160.563 517.96 157.405 514.803 153.224C511.731 149.043 510.109 144.008 509.939 138.12H533.235C533.576 141.448 534.728 144.008 536.691 145.8C538.653 147.507 541.213 148.36 544.371 148.36C547.613 148.36 550.173 147.635 552.051 146.184C553.928 144.648 554.867 142.557 554.867 139.912C554.867 137.693 554.099 135.859 552.563 134.408C551.112 132.957 549.277 131.763 547.059 130.824C544.925 129.885 541.853 128.819 537.843 127.624C532.04 125.832 527.304 124.04 523.635 122.248C519.965 120.456 516.808 117.811 514.163 114.312C511.517 110.813 510.195 106.248 510.195 100.616C510.195 92.2533 513.224 85.7253 519.283 81.032C525.341 76.2533 533.235 73.864 542.963 73.864C552.861 73.864 560.84 76.2533 566.899 81.032C572.957 85.7253 576.2 92.296 576.627 100.744H552.947C552.776 97.8427 551.709 95.5813 549.747 93.96C547.784 92.2533 545.267 91.4 542.194 91.4C539.549 91.4 537.416 92.1253 535.795 93.576C534.173 94.9413 533.363 96.9467 533.363 99.592C533.363 102.493 534.728 104.755 537.458 106.376C540.189 107.997 544.456 109.747 550.259 111.624C556.061 113.587 560.755 115.464 564.339 117.256C568.008 119.048 571.165 121.651 573.811 125.064C576.456 128.477 577.779 132.872 577.779 138.248C577.779 143.368 576.456 148.019 573.811 152.2C571.251 156.381 567.496 159.709 562.547 162.184C557.597 164.659 551.752 165.896 545.011 165.896ZM586.897 129.16C586.897 121.821 588.262 115.379 590.993 109.832C593.809 104.285 597.606 100.019 602.385 97.032C607.163 94.0453 612.497 92.552 618.385 92.552C623.419 92.552 627.814 93.576 631.569 95.624C635.409 97.672 638.353 100.36 640.401 103.688V93.576H662.289V165H640.401V154.888C638.267 158.216 635.281 160.904 631.441 162.952C627.686 165 623.291 166.024 618.257 166.024C612.454 166.024 607.163 164.531 602.385 161.544C597.606 158.472 593.809 154.163 590.993 148.616C588.262 142.984 586.897 136.499 586.897 129.16ZM640.401 129.288C640.401 123.827 638.865 119.517 635.793 116.36C632.806 113.203 629.137 111.624 624.785 111.624C620.433 111.624 616.721 113.203 613.649 116.36C610.662 119.432 609.169 123.699 609.169 129.16C609.169 134.621 610.662 138.973 613.649 142.216C616.721 145.373 620.433 146.952 624.785 146.952C629.137 146.952 632.806 145.373 635.793 142.216C638.865 139.059 640.401 134.749 640.401 129.288ZM700.012 70.28V165H678.124V70.28H700.012ZM737.762 70.28V165H715.874V70.28H737.762ZM749.272 129.16C749.272 121.821 750.637 115.379 753.368 109.832C756.184 104.285 759.981 100.019 764.76 97.032C769.538 94.0453 774.872 92.552 780.76 92.552C785.794 92.552 790.189 93.576 793.944 95.624C797.784 97.672 800.728 100.36 802.776 103.688V93.576H824.664V165H802.776V154.888C800.642 158.216 797.656 160.904 793.816 162.952C790.061 165 785.666 166.024 780.632 166.024C774.829 166.024 769.538 164.531 764.76 161.544C759.981 158.472 756.184 154.163 753.368 148.616C750.637 142.984 749.272 136.499 749.272 129.16ZM802.776 129.288C802.776 123.827 801.24 119.517 798.168 116.36C795.181 113.203 791.512 111.624 787.16 111.624C782.808 111.624 779.096 113.203 776.024 116.36C773.037 119.432 771.544 123.699 771.544 129.16C771.544 134.621 773.037 138.973 776.024 142.216C779.096 145.373 782.808 146.952 787.16 146.952C791.512 146.952 795.181 145.373 798.168 142.216C801.24 139.059 802.776 134.749 802.776 129.288ZM851.507 86.152C847.667 86.152 844.509 85.0427 842.035 82.824C839.645 80.52 838.451 77.704 838.451 74.376C838.451 70.9627 839.645 68.1467 842.035 65.928C844.509 63.624 847.667 62.472 851.507 62.472C855.261 62.472 858.333 63.624 860.723 65.928C863.197 68.1467 864.435 70.9627 864.435 74.376C864.435 77.704 863.197 80.52 860.723 82.824C858.333 85.0427 855.261 86.152 851.507 86.152ZM862.387 93.576V165H840.499V93.576H862.387Z"
    fill="#F8FAFC"
  />
  <path
    d="M892.201 114.952C888.361 114.952 885.203 113.843 882.729 111.624C880.339 109.32 879.145 106.504 879.145 103.176C879.145 99.7627 880.339 96.904 882.729 94.6C885.203 92.296 888.361 91.144 892.201 91.144C895.955 91.144 899.027 92.296 901.417 94.6C903.891 96.904 905.129 99.7627 905.129 103.176C905.129 106.504 903.891 109.32 901.417 111.624C899.027 113.843 895.955 114.952 892.201 114.952ZM904.873 144.776L890.665 181.512H876.713L884.137 144.776H904.873Z"
    fill="#3C83F6"
  />
</svg>
